<svg width="359" height="214" viewBox="0 0 359 214" fill="none" xmlns="http://www.w3.org/2000/svg">
<path d="M265.596 113.548V78.8296H244.082V86.7478H229.737V0.0127563H202.167V34.1507H193.893V17.1025H172.379V100.235H142.043V70.8699H123.021V7.18396H99.5379V49.6385H77.4754V141.104H60.3802V96.5667H42.7286V67.9068H23.9804V45.9035L3.05593 56.9259V115.798H-19.0066V103.655H-48.4869V212.982L294.587 213.148V113.548H265.596Z" fill="#F0F0F0"/>
<path d="M111.782 14.7037H104.912V22.5721H111.782V14.7037Z" fill="#FAFAFA"/>
<path d="M111.782 27.8842H104.912V35.7526H111.782V27.8842Z" fill="#FAFAFA"/>
<path d="M111.782 41.0812H104.912V48.9496H111.782V41.0812Z" fill="#FAFAFA"/>
<path d="M111.782 54.2698H104.912V62.1382H111.782V54.2698Z" fill="#FAFAFA"/>
<path d="M111.782 67.4586H104.912V75.327H111.782V67.4586Z" fill="#FAFAFA"/>
<path d="M111.782 80.6555H104.912V88.5239H111.782V80.6555Z" fill="#FAFAFA"/>
<path d="M111.782 93.8442H104.912V101.713H111.782V93.8442Z" fill="#FAFAFA"/>
<path d="M111.782 107.041H104.912V114.91H111.782V107.041Z" fill="#FAFAFA"/>
<path d="M214.976 4.17108H208.106V12.0395H214.976V4.17108Z" fill="#FAFAFA"/>
<path d="M214.976 17.3597H208.106V25.2281H214.976V17.3597Z" fill="#FAFAFA"/>
<path d="M214.976 30.5568H208.106V38.4252H214.976V30.5568Z" fill="#FAFAFA"/>
<path d="M214.976 43.7455H208.106V51.6139H214.976V43.7455Z" fill="#FAFAFA"/>
<path d="M214.976 56.9341H208.106V64.8025H214.976V56.9341Z" fill="#FAFAFA"/>
<path d="M214.976 70.1229H208.106V77.9913H214.976V70.1229Z" fill="#FAFAFA"/>
<path d="M214.976 83.3198H208.106V91.1882H214.976V83.3198Z" fill="#FAFAFA"/>
<path d="M214.976 96.5085H208.106V104.377H214.976V96.5085Z" fill="#FAFAFA"/>
<path d="M81.4376 213.049V86.5486H54.1087V213.041L81.4376 213.057V213.049Z" fill="#E0E0E0"/>
<path d="M59.4914 90.5575H56.1771V97.3884H59.4914V90.5575Z" fill="#FAFAFA"/>
<path d="M66.1201 90.5575H62.8058V97.3884H66.1201V90.5575Z" fill="#FAFAFA"/>
<path d="M72.7488 90.5575H69.4345V97.3884H72.7488V90.5575Z" fill="#FAFAFA"/>
<path d="M79.3693 90.5575H76.0549V97.3884H79.3693V90.5575Z" fill="#FAFAFA"/>
<path d="M59.4914 102.02H56.1771V108.851H59.4914V102.02Z" fill="#FAFAFA"/>
<path d="M66.1201 102.02H62.8058V108.851H66.1201V102.02Z" fill="#FAFAFA"/>
<path d="M72.7488 102.02H69.4345V108.851H72.7488V102.02Z" fill="#FAFAFA"/>
<path d="M79.3693 102.02H76.0549V108.851H79.3693V102.02Z" fill="#FAFAFA"/>
<path d="M59.4914 113.465H56.1771V120.296H59.4914V113.465Z" fill="#FAFAFA"/>
<path d="M66.1201 113.465H62.8058V120.296H66.1201V113.465Z" fill="#FAFAFA"/>
<path d="M72.7488 113.465H69.4345V120.296H72.7488V113.465Z" fill="#FAFAFA"/>
<path d="M79.3693 113.465H76.0549V120.296H79.3693V113.465Z" fill="#FAFAFA"/>
<path d="M59.4914 124.911H56.1771V131.742H59.4914V124.911Z" fill="#FAFAFA"/>
<path d="M66.1201 124.911H62.8058V131.742H66.1201V124.911Z" fill="#FAFAFA"/>
<path d="M72.7488 124.911H69.4345V131.742H72.7488V124.911Z" fill="#FAFAFA"/>
<path d="M79.3693 124.911H76.0549V131.742H79.3693V124.911Z" fill="#FAFAFA"/>
<path d="M59.4914 136.357H56.1771V143.188H59.4914V136.357Z" fill="#FAFAFA"/>
<path d="M66.1201 136.357H62.8058V143.188H66.1201V136.357Z" fill="#FAFAFA"/>
<path d="M72.7488 136.357H69.4345V143.188H72.7488V136.357Z" fill="#FAFAFA"/>
<path d="M79.3693 136.357H76.0549V143.188H79.3693V136.357Z" fill="#FAFAFA"/>
<path d="M59.4914 147.803H56.1771V154.633H59.4914V147.803Z" fill="#FAFAFA"/>
<path d="M66.1201 147.803H62.8058V154.633H66.1201V147.803Z" fill="#FAFAFA"/>
<path d="M72.7488 147.803H69.4345V154.633H72.7488V147.803Z" fill="#FAFAFA"/>
<path d="M79.3693 147.803H76.0549V154.633H79.3693V147.803Z" fill="#FAFAFA"/>
<path d="M59.4914 159.248H56.1771V166.079H59.4914V159.248Z" fill="#FAFAFA"/>
<path d="M66.1201 159.248H62.8058V166.079H66.1201V159.248Z" fill="#FAFAFA"/>
<path d="M72.7488 159.248H69.4345V166.079H72.7488V159.248Z" fill="#FAFAFA"/>
<path d="M79.3693 159.248H76.0549V166.079H79.3693V159.248Z" fill="#FAFAFA"/>
<path d="M59.4914 170.702H56.1771V177.533H59.4914V170.702Z" fill="#FAFAFA"/>
<path d="M66.1201 170.702H62.8058V177.533H66.1201V170.702Z" fill="#FAFAFA"/>
<path d="M72.7488 170.702H69.4345V177.533H72.7488V170.702Z" fill="#FAFAFA"/>
<path d="M79.3693 170.702H76.0549V177.533H79.3693V170.702Z" fill="#FAFAFA"/>
<path d="M176.408 213.09V71.9489H119.74V213.132C119.74 213.132 175.967 213.148 176.408 213.09Z" fill="#E6E6E6"/>
<path d="M130.862 76.6135H123.993V84.4819H130.862V76.6135Z" fill="#E0E0E0"/>
<path d="M144.61 76.6135H137.74V84.4819H144.61V76.6135Z" fill="#E0E0E0"/>
<path d="M158.349 76.6135H151.479V84.4819H158.349V76.6135Z" fill="#E0E0E0"/>
<path d="M172.097 76.6135H165.227V84.4819H172.097V76.6135Z" fill="#E0E0E0"/>
<path d="M130.862 89.8104H123.993V97.6788H130.862V89.8104Z" fill="#E0E0E0"/>
<path d="M144.61 89.8104H137.74V97.6788H144.61V89.8104Z" fill="#E0E0E0"/>
<path d="M158.349 89.8104H151.479V97.6788H158.349V89.8104Z" fill="#E0E0E0"/>
<path d="M172.097 89.8104H165.227V97.6788H172.097V89.8104Z" fill="#E0E0E0"/>
<path d="M130.862 102.999H123.993V110.868H130.862V102.999Z" fill="#E0E0E0"/>
<path d="M144.61 102.999H137.74V110.868H144.61V102.999Z" fill="#E0E0E0"/>
<path d="M158.349 102.999H151.479V110.868H158.349V102.999Z" fill="#E0E0E0"/>
<path d="M172.097 102.999H165.227V110.868H172.097V102.999Z" fill="#E0E0E0"/>
<path d="M130.862 116.188H123.993V124.056H130.862V116.188Z" fill="#E0E0E0"/>
<path d="M144.61 116.188H137.74V124.056H144.61V116.188Z" fill="#E0E0E0"/>
<path d="M158.349 116.188H151.479V124.056H158.349V116.188Z" fill="#E0E0E0"/>
<path d="M172.097 116.188H165.227V124.056H172.097V116.188Z" fill="#E0E0E0"/>
<path d="M130.862 129.385H123.993V137.253H130.862V129.385Z" fill="#E0E0E0"/>
<path d="M144.61 129.385H137.74V137.253H144.61V129.385Z" fill="#E0E0E0"/>
<path d="M158.349 129.385H151.479V137.253H158.349V129.385Z" fill="#E0E0E0"/>
<path d="M172.097 129.385H165.227V137.253H172.097V129.385Z" fill="#E0E0E0"/>
<path d="M130.862 142.574H123.993V150.442H130.862V142.574Z" fill="#E0E0E0"/>
<path d="M144.61 142.574H137.74V150.442H144.61V142.574Z" fill="#E0E0E0"/>
<path d="M158.349 142.574H151.479V150.442H158.349V142.574Z" fill="#E0E0E0"/>
<path d="M172.097 142.574H165.227V150.442H172.097V142.574Z" fill="#E0E0E0"/>
<path d="M130.862 155.771H123.993V163.639H130.862V155.771Z" fill="#E0E0E0"/>
<path d="M144.61 155.771H137.74V163.639H144.61V155.771Z" fill="#E0E0E0"/>
<path d="M158.349 155.771H151.479V163.639H158.349V155.771Z" fill="#E0E0E0"/>
<path d="M172.097 155.771H165.227V163.639H172.097V155.771Z" fill="#E0E0E0"/>
<path d="M130.862 168.959H123.993V176.828H130.862V168.959Z" fill="#E0E0E0"/>
<path d="M144.61 168.959H137.74V176.828H144.61V168.959Z" fill="#E0E0E0"/>
<path d="M158.349 168.959H151.479V176.828H158.349V168.959Z" fill="#E0E0E0"/>
<path d="M172.097 168.959H165.227V176.828H172.097V168.959Z" fill="#E0E0E0"/>
<path d="M44.1656 213.032V62.0801H20.7242V213.148C28.1421 212.966 44.1656 213.024 44.1656 213.024V213.032Z" fill="#E6E6E6"/>
<path d="M31.066 64.8773H24.1964V72.7457H31.066V64.8773Z" fill="#FAFAFA"/>
<path d="M31.066 78.0576H24.1964V85.926H31.066V78.0576Z" fill="#FAFAFA"/>
<path d="M31.066 91.2546H24.1964V99.123H31.066V91.2546Z" fill="#FAFAFA"/>
<path d="M31.066 104.443H24.1964V112.312H31.066V104.443Z" fill="#FAFAFA"/>
<path d="M31.066 117.632H24.1964V125.5H31.066V117.632Z" fill="#FAFAFA"/>
<path d="M31.066 130.829H24.1964V138.697H31.066V130.829Z" fill="#FAFAFA"/>
<path d="M31.066 144.018H24.1964V151.886H31.066V144.018Z" fill="#FAFAFA"/>
<path d="M31.066 157.215H24.1964V165.083H31.066V157.215Z" fill="#FAFAFA"/>
<path d="M40.2532 64.8773H33.3836V72.7457H40.2532V64.8773Z" fill="#FAFAFA"/>
<path d="M40.2532 78.0576H33.3836V85.926H40.2532V78.0576Z" fill="#FAFAFA"/>
<path d="M40.2532 91.2546H33.3836V99.123H40.2532V91.2546Z" fill="#FAFAFA"/>
<path d="M40.2532 104.443H33.3836V112.312H40.2532V104.443Z" fill="#FAFAFA"/>
<path d="M40.2532 117.632H33.3836V125.5H40.2532V117.632Z" fill="#FAFAFA"/>
<path d="M40.2532 130.829H33.3836V138.697H40.2532V130.829Z" fill="#FAFAFA"/>
<path d="M40.2532 144.018H33.3836V151.886H40.2532V144.018Z" fill="#FAFAFA"/>
<path d="M40.2532 157.215H33.3836V165.083H40.2532V157.215Z" fill="#FAFAFA"/>
<path d="M268.703 64.7693H227.328V213.148H268.703V64.7693Z" fill="#E6E6E6"/>
<path d="M245.569 70.9031H233.441V78.7715H245.569V70.9031Z" fill="#FAFAFA"/>
<path d="M245.569 84.1H233.441V91.9684H245.569V84.1Z" fill="#FAFAFA"/>
<path d="M245.569 97.2888H233.441V105.157H245.569V97.2888Z" fill="#FAFAFA"/>
<path d="M245.569 110.486H233.441V118.354H245.569V110.486Z" fill="#FAFAFA"/>
<path d="M245.569 123.674H233.441V131.543H245.569V123.674Z" fill="#FAFAFA"/>
<path d="M245.569 136.855H233.441V144.723H245.569V136.855Z" fill="#FAFAFA"/>
<path d="M245.569 150.052H233.441V157.92H245.569V150.052Z" fill="#FAFAFA"/>
<path d="M245.569 163.241H233.441V171.109H245.569V163.241Z" fill="#FAFAFA"/>
<path d="M261.792 70.9031H249.664V78.7715H261.792V70.9031Z" fill="#FAFAFA"/>
<path d="M261.792 84.1H249.664V91.9684H261.792V84.1Z" fill="#FAFAFA"/>
<path d="M261.792 97.2888H249.664V105.157H261.792V97.2888Z" fill="#FAFAFA"/>
<path d="M261.792 110.486H249.664V118.354H261.792V110.486Z" fill="#FAFAFA"/>
<path d="M261.792 123.674H249.664V131.543H261.792V123.674Z" fill="#FAFAFA"/>
<path d="M261.792 136.855H249.664V144.723H261.792V136.855Z" fill="#FAFAFA"/>
<path d="M261.792 150.052H249.664V157.92H261.792V150.052Z" fill="#FAFAFA"/>
<path d="M261.792 163.241H249.664V171.109H261.792V163.241Z" fill="#FAFAFA"/>
<path d="M358.889 15.2267H303.525V213.788H358.889V15.2267Z" fill="#E6E6E6"/>
<path d="M323.236 23.4354H312.097V30.6564H323.236V23.4354Z" fill="#FAFAFA"/>
<path d="M323.236 35.5534H312.097V42.7744H323.236V35.5534Z" fill="#FAFAFA"/>
<path d="M323.236 47.6714H312.097V54.8924H323.236V47.6714Z" fill="#FAFAFA"/>
<path d="M323.236 59.7894H312.097V67.0104H323.236V59.7894Z" fill="#FAFAFA"/>
<path d="M323.236 71.8991H312.097V79.1201H323.236V71.8991Z" fill="#FAFAFA"/>
<path d="M323.236 84.0171H312.097V91.2381H323.236V84.0171Z" fill="#FAFAFA"/>
<path d="M323.236 96.1351H312.097V103.356H323.236V96.1351Z" fill="#FAFAFA"/>
<path d="M323.236 108.245H312.097V115.466H323.236V108.245Z" fill="#FAFAFA"/>
<path d="M338.139 23.4354H326.999V30.6564H338.139V23.4354Z" fill="#FAFAFA"/>
<path d="M338.139 35.5534H326.999V42.7744H338.139V35.5534Z" fill="#FAFAFA"/>
<path d="M338.139 47.6714H326.999V54.8924H338.139V47.6714Z" fill="#FAFAFA"/>
<path d="M338.139 59.7894H326.999V67.0104H338.139V59.7894Z" fill="#FAFAFA"/>
<path d="M338.139 71.8991H326.999V79.1201H338.139V71.8991Z" fill="#FAFAFA"/>
<path d="M338.139 84.0171H326.999V91.2381H338.139V84.0171Z" fill="#FAFAFA"/>
<path d="M338.139 96.1351H326.999V103.356H338.139V96.1351Z" fill="#FAFAFA"/>
<path d="M338.139 108.245H326.999V115.466H338.139V108.245Z" fill="#FAFAFA"/>
<path d="M352.418 23.4354H341.278V30.6564H352.418V23.4354Z" fill="#FAFAFA"/>
<path d="M352.418 35.5534H341.278V42.7744H352.418V35.5534Z" fill="#FAFAFA"/>
<path d="M352.418 47.6714H341.278V54.8924H352.418V47.6714Z" fill="#FAFAFA"/>
<path d="M352.418 59.7894H341.278V67.0104H352.418V59.7894Z" fill="#FAFAFA"/>
<path d="M352.418 71.8991H341.278V79.1201H352.418V71.8991Z" fill="#FAFAFA"/>
<path d="M352.418 84.0171H341.278V91.2381H352.418V84.0171Z" fill="#FAFAFA"/>
<path d="M352.418 96.1351H341.278V103.356H352.418V96.1351Z" fill="#FAFAFA"/>
<path d="M352.418 108.245H341.278V115.466H352.418V108.245Z" fill="#FAFAFA"/>
<path d="M323.236 118.495H312.097V125.716H323.236V118.495Z" fill="#FAFAFA"/>
<path d="M323.236 130.613H312.097V137.834H323.236V130.613Z" fill="#FAFAFA"/>
<path d="M323.236 142.731H312.097V149.952H323.236V142.731Z" fill="#FAFAFA"/>
<path d="M323.236 154.849H312.097V162.07H323.236V154.849Z" fill="#FAFAFA"/>
<path d="M323.236 166.959H312.097V174.18H323.236V166.959Z" fill="#FAFAFA"/>
<path d="M323.236 179.077H312.097V186.298H323.236V179.077Z" fill="#FAFAFA"/>
<path d="M323.236 191.195H312.097V198.416H323.236V191.195Z" fill="#FAFAFA"/>
<path d="M323.236 203.305H312.097V210.526H323.236V203.305Z" fill="#FAFAFA"/>
<path d="M338.139 118.495H326.999V125.716H338.139V118.495Z" fill="#FAFAFA"/>
<path d="M338.139 130.613H326.999V137.834H338.139V130.613Z" fill="#FAFAFA"/>
<path d="M338.139 142.731H326.999V149.952H338.139V142.731Z" fill="#FAFAFA"/>
<path d="M338.139 154.849H326.999V162.07H338.139V154.849Z" fill="#FAFAFA"/>
<path d="M338.139 166.959H326.999V174.18H338.139V166.959Z" fill="#FAFAFA"/>
<path d="M338.139 179.077H326.999V186.298H338.139V179.077Z" fill="#FAFAFA"/>
<path d="M338.139 191.195H326.999V198.416H338.139V191.195Z" fill="#FAFAFA"/>
<path d="M338.139 203.305H326.999V210.526H338.139V203.305Z" fill="#FAFAFA"/>
<path d="M352.418 118.495H341.278V125.716H352.418V118.495Z" fill="#FAFAFA"/>
<path d="M352.418 130.613H341.278V137.834H352.418V130.613Z" fill="#FAFAFA"/>
<path d="M352.418 142.731H341.278V149.952H352.418V142.731Z" fill="#FAFAFA"/>
<path d="M352.418 154.849H341.278V162.07H352.418V154.849Z" fill="#FAFAFA"/>
<path d="M352.418 166.959H341.278V174.18H352.418V166.959Z" fill="#FAFAFA"/>
<path d="M352.418 179.077H341.278V186.298H352.418V179.077Z" fill="#FAFAFA"/>
<path d="M352.418 191.195H341.278V198.416H352.418V191.195Z" fill="#FAFAFA"/>
<path d="M352.418 203.305H341.278V210.526H352.418V203.305Z" fill="#FAFAFA"/>
<path d="M200.256 213.107V102.999H182.214V213.09H200.256V213.107Z" fill="#E0E0E0"/>
<path d="M185.761 106.485H183.576V112.345H185.761V106.485Z" fill="#FAFAFA"/>
<path d="M190.139 106.485H187.954V112.345H190.139V106.485Z" fill="#FAFAFA"/>
<path d="M194.508 106.485H192.323V112.345H194.508V106.485Z" fill="#FAFAFA"/>
<path d="M198.886 106.485H196.701V112.345H198.886V106.485Z" fill="#FAFAFA"/>
<path d="M185.761 116.321H183.576V122.18H185.761V116.321Z" fill="#FAFAFA"/>
<path d="M190.139 116.321H187.954V122.18H190.139V116.321Z" fill="#FAFAFA"/>
<path d="M194.508 116.321H192.323V122.18H194.508V116.321Z" fill="#FAFAFA"/>
<path d="M198.886 116.321H196.701V122.18H198.886V116.321Z" fill="#FAFAFA"/>
<path d="M185.761 126.156H183.576V132.016H185.761V126.156Z" fill="#FAFAFA"/>
<path d="M190.139 126.156H187.954V132.016H190.139V126.156Z" fill="#FAFAFA"/>
<path d="M194.508 126.156H192.323V132.016H194.508V126.156Z" fill="#FAFAFA"/>
<path d="M198.886 126.156H196.701V132.016H198.886V126.156Z" fill="#FAFAFA"/>
<path d="M185.761 135.983H183.576V141.843H185.761V135.983Z" fill="#FAFAFA"/>
<path d="M190.139 135.983H187.954V141.843H190.139V135.983Z" fill="#FAFAFA"/>
<path d="M194.508 135.983H192.323V141.843H194.508V135.983Z" fill="#FAFAFA"/>
<path d="M198.886 135.983H196.701V141.843H198.886V135.983Z" fill="#FAFAFA"/>
<path d="M185.761 145.827H183.576V151.687H185.761V145.827Z" fill="#FAFAFA"/>
<path d="M190.139 145.827H187.954V151.687H190.139V145.827Z" fill="#FAFAFA"/>
<path d="M194.508 145.827H192.323V151.687H194.508V145.827Z" fill="#FAFAFA"/>
<path d="M198.886 145.827H196.701V151.687H198.886V145.827Z" fill="#FAFAFA"/>
<path d="M185.761 155.663H183.576V161.522H185.761V155.663Z" fill="#FAFAFA"/>
<path d="M190.139 155.663H187.954V161.522H190.139V155.663Z" fill="#FAFAFA"/>
<path d="M194.508 155.663H192.323V161.522H194.508V155.663Z" fill="#FAFAFA"/>
<path d="M198.886 155.663H196.701V161.522H198.886V155.663Z" fill="#FAFAFA"/>
<path d="M185.761 165.498H183.576V171.358H185.761V165.498Z" fill="#FAFAFA"/>
<path d="M190.139 165.498H187.954V171.358H190.139V165.498Z" fill="#FAFAFA"/>
<path d="M194.508 165.498H192.323V171.358H194.508V165.498Z" fill="#FAFAFA"/>
<path d="M198.886 165.498H196.701V171.358H198.886V165.498Z" fill="#FAFAFA"/>
<path d="M185.761 175.334H183.576V181.193H185.761V175.334Z" fill="#FAFAFA"/>
<path d="M190.139 175.334H187.954V181.193H190.139V175.334Z" fill="#FAFAFA"/>
<path d="M194.508 175.334H192.323V181.193H194.508V175.334Z" fill="#FAFAFA"/>
<path d="M198.886 175.334H196.701V181.193H198.886V175.334Z" fill="#FAFAFA"/>
<path d="M22.8175 213.148V119.325H-25.4276V212.999L22.8175 213.157V213.148Z" fill="#FAFAFA"/>
<path d="M7.46678 122.239H1.6189V127.16H7.46678V122.239Z" fill="#E0E0E0"/>
<path d="M19.1626 122.239H13.3147V127.16H19.1626V122.239Z" fill="#E0E0E0"/>
<path d="M7.46678 130.489H1.6189V135.411H7.46678V130.489Z" fill="#E0E0E0"/>
<path d="M19.1626 130.489H13.3147V135.411H19.1626V130.489Z" fill="#E0E0E0"/>
<path d="M7.46678 138.739H1.6189V143.661H7.46678V138.739Z" fill="#E0E0E0"/>
<path d="M19.1626 138.739H13.3147V143.661H19.1626V138.739Z" fill="#E0E0E0"/>
<path d="M7.46678 146.989H1.6189V151.911H7.46678V146.989Z" fill="#E0E0E0"/>
<path d="M19.1626 146.989H13.3147V151.911H19.1626V146.989Z" fill="#E0E0E0"/>
<path d="M7.46678 155.231H1.6189V160.153H7.46678V155.231Z" fill="#E0E0E0"/>
<path d="M19.1626 155.231H13.3147V160.153H19.1626V155.231Z" fill="#E0E0E0"/>
<path d="M7.46678 163.481H1.6189V168.403H7.46678V163.481Z" fill="#E0E0E0"/>
<path d="M19.1626 163.481H13.3147V168.403H19.1626V163.481Z" fill="#E0E0E0"/>
<path d="M7.46678 171.723H1.6189V176.645H7.46678V171.723Z" fill="#E0E0E0"/>
<path d="M19.1626 171.723H13.3147V176.645H19.1626V171.723Z" fill="#E0E0E0"/>
</svg>
