<svg width="123" height="96" viewBox="0 0 123 96" fill="none" xmlns="http://www.w3.org/2000/svg">
<path opacity="0.3" d="M62.6063 95.0568C91.38 95.0568 114.706 90.5864 114.706 85.0719C114.706 79.5574 91.38 75.087 62.6063 75.087C33.8326 75.087 10.5069 79.5574 10.5069 85.0719C10.5069 90.5864 33.8326 95.0568 62.6063 95.0568Z" fill="black"/>
<path d="M2.8315 64.8698H21.2308V89.3132C21.2308 91.0894 19.7937 92.5253 18.0161 92.5253H6.03786C4.26023 92.5253 2.82318 91.0894 2.82318 89.3132V64.8698H2.8315Z" fill="#263238"/>
<path d="M116.948 92.517H104.97C103.193 92.517 101.756 91.0811 101.756 89.3049V64.8614H120.155V89.3049C120.155 91.0811 118.718 92.517 116.94 92.517H116.948Z" fill="#263238"/>
<path d="M106.906 22.4567C106.906 22.4567 108.55 20.4647 109.929 19.9086C111.3 19.3608 115.246 19.4521 116.799 19.9086C118.361 20.3651 123.029 25.038 122.389 26.4988C121.75 27.9679 119.274 30.1591 117.987 30.3417C116.708 30.5243 113.534 30.3417 113.534 30.3417L105.61 24.5732L106.897 22.4484L106.906 22.4567Z" fill="#014B6D"/>
<path opacity="0.4" d="M107.927 22.8219C107.927 22.8219 109.34 21.1121 110.519 20.639C111.699 20.1659 115.071 20.2489 116.409 20.639C117.746 21.0291 121.75 25.038 121.202 26.2913C120.653 27.5446 118.527 29.4287 117.43 29.5864C116.334 29.7441 113.618 29.5864 113.618 29.5864L106.823 24.6396L107.927 22.8219Z" fill="white"/>
<path d="M16.0889 22.4567C16.0889 22.4567 14.4442 20.4647 13.0653 19.9086C11.6947 19.3608 7.74903 19.4521 6.19569 19.9086C4.64234 20.3651 -0.034299 25.038 0.605314 26.4988C1.24493 27.9679 3.7203 30.1591 5.00784 30.3417C6.28706 30.5243 9.46023 30.3417 9.46023 30.3417L17.3848 24.5732L16.0972 22.4484L16.0889 22.4567Z" fill="#014B6D"/>
<path opacity="0.4" d="M15.0672 22.8219C15.0672 22.8219 13.6551 21.1121 12.4755 20.639C11.296 20.1659 7.92346 20.2489 6.58609 20.639C5.24872 21.0291 1.24491 25.038 1.79315 26.2913C2.34139 27.5446 4.46791 29.4287 5.56439 29.5864C6.66087 29.7441 9.37714 29.5864 9.37714 29.5864L16.172 24.6396L15.0672 22.8219Z" fill="white"/>
<path d="M112.737 29.52C111.042 28.6734 107.221 23.1623 107.221 23.1623L97.7601 6.26345C96.0738 3.25055 92.9671 1.30005 89.5199 1.10085L61.5513 0.719055H61.435L33.4665 1.10085C30.0192 1.30835 26.9125 3.25055 25.2263 6.26345L15.765 23.1623C15.765 23.1623 11.9522 28.6734 10.2493 29.52C8.55478 30.3666 2.8315 43.2898 2.8315 43.2898V77.4443L18.6889 77.4194L61.435 77.4443H61.5513L104.297 77.4194L120.155 77.4443V43.2898C120.155 43.2898 114.432 30.3666 112.737 29.52Z" fill="#014B6D"/>
<path opacity="0.3" d="M14.2698 77.4359V73.1033C14.2698 71.7504 15.3746 70.6465 16.7286 70.6465H29.0141C30.3681 70.6465 31.4729 71.7504 31.4729 73.1033V77.4359H14.2698Z" fill="black"/>
<path d="M61.5596 26.3826C50.4121 26.6067 36.515 26.6067 25.301 26.5403L22.2774 26.5154L20.7656 26.4988C19.2538 26.6233 18.9963 25.4779 19.8436 24.3906C20.7241 23.1539 21.9368 22.1994 23.0998 21.2366C21.9784 22.2326 20.8071 23.2203 19.9764 24.4736C19.5943 25.0214 19.2289 25.951 20.0678 26.2083C20.4915 26.3328 21.8205 26.2166 22.294 26.2415L25.3176 26.2166C36.5483 26.1502 50.4038 26.1502 61.5679 26.3743L61.5596 26.3826Z" fill="#263238"/>
<path d="M21.8205 26.3826C22.1445 31.2381 22.4685 36.1102 23.1828 40.9159C23.4486 43.3561 24.3707 45.5805 25.9157 47.4895C27.6851 50.0708 30.1106 51.8553 33.3751 51.5565H35.2026C43.5259 51.5731 52.4971 51.6229 60.7954 51.7557C53.768 51.8802 45.9348 51.9217 38.8575 51.9466C37.6364 51.9466 34.5546 51.9549 33.3751 51.9632C30.0109 52.2869 27.4275 50.3945 25.6167 47.7136C24.0633 45.788 23.0832 43.4142 22.8755 40.9574C22.2276 36.1102 22.0033 31.2464 21.8288 26.3743L21.8205 26.3826Z" fill="#263238"/>
<path d="M22.9336 75.444C22.9336 77.0376 21.6378 78.3323 20.0429 78.3323C18.448 78.3323 17.1522 77.0376 17.1522 75.444C17.1522 73.8504 18.448 72.5555 20.0429 72.5555C21.6378 72.5555 22.9336 73.8504 22.9336 75.444Z" fill="#263238"/>
<path d="M29.5457 75.444C29.5457 77.0376 28.2499 78.3323 26.655 78.3323C25.0601 78.3323 23.7643 77.0376 23.7643 75.444C23.7643 73.8504 25.0601 72.5555 26.655 72.5555C28.2499 72.5555 29.5457 73.8504 29.5457 75.444Z" fill="#263238"/>
<path opacity="0.3" d="M20.0429 78.0252C21.4697 78.0252 22.6263 76.8695 22.6263 75.4439C22.6263 74.0183 21.4697 72.8626 20.0429 72.8626C18.6162 72.8626 17.4595 74.0183 17.4595 75.4439C17.4595 76.8695 18.6162 78.0252 20.0429 78.0252Z" fill="white"/>
<path opacity="0.3" d="M26.655 78.0252C28.0818 78.0252 29.2384 76.8695 29.2384 75.4439C29.2384 74.0183 28.0818 72.8626 26.655 72.8626C25.2283 72.8626 24.0717 74.0183 24.0717 75.4439C24.0717 76.8695 25.2283 78.0252 26.655 78.0252Z" fill="white"/>
<path d="M93.6483 6.50414C93.3493 6.40454 70.049 6.47094 63.2791 6.50414C55.8529 6.47924 30.2933 6.41284 29.9611 6.50414C29.5707 6.62034 23.0998 21.2449 23.0998 21.2449H99.9032C99.9032 21.2449 94.0055 6.62034 93.6483 6.50414Z" fill="#263238"/>
<path opacity="0.3" d="M8.4219 43.0407C9.10304 42.9992 10.3075 46.6429 17.1522 46.369C24.163 46.0868 29.3713 46.6844 31.4729 44.9663C33.5745 43.2482 39.9042 36.0853 39.9042 36.0853L8.4219 43.0407Z" fill="black"/>
<path opacity="0.3" d="M113.775 43.0407C113.094 42.9992 111.89 46.6429 105.045 46.369C98.0342 46.0868 92.8259 46.6844 90.7243 44.9663C88.6227 43.2482 82.2931 36.0853 82.2931 36.0853L113.775 43.0407Z" fill="black"/>
<path d="M10.1331 33.7032C10.1331 33.7032 7.25894 36.7494 7.64936 38.8991C8.03977 41.0488 8.14777 44.2193 9.63466 44.4185C11.1216 44.6178 28.4908 44.1197 30.0774 43.4308C31.6639 42.7419 40.0038 37.679 39.9042 36.0937C39.8045 34.5084 38.2179 33.7116 38.2179 33.7116H10.1331V33.7032Z" fill="white"/>
<path d="M61.435 26.3826C72.5826 26.1585 86.4713 26.1585 97.6853 26.2249L100.709 26.2498C101.174 26.2249 102.503 26.3329 102.935 26.2167C103.766 25.9594 103.409 25.0298 103.027 24.482C102.196 23.2287 101.025 22.2409 99.9032 21.2449C101.066 22.2077 102.279 23.1622 103.159 24.3989C103.99 25.4779 103.766 26.6234 102.237 26.5072L100.726 26.5237L97.702 26.5486C86.4713 26.6067 72.6158 26.615 61.4433 26.3909L61.435 26.3826Z" fill="#263238"/>
<path d="M101.174 26.3826C101 31.2547 100.775 36.1185 100.127 40.9657C99.9115 43.4225 98.9396 45.788 97.3863 47.722C95.5754 50.4029 92.9921 52.2952 89.6279 51.9715C88.4566 51.9715 85.3499 51.9632 84.1454 51.9549C77.0682 51.93 69.2516 51.8885 62.2076 51.764C70.4976 51.6229 79.4854 51.5814 87.8004 51.5648H89.6279C92.8924 51.8553 95.3179 50.0709 97.0872 47.4896C98.6323 45.5806 99.5543 43.3561 99.8201 40.9159C100.526 36.1019 100.858 31.2298 101.182 26.3826H101.174Z" fill="#263238"/>
<path opacity="0.3" d="M103.558 64.8698H102.428H60.7954H60.7705H20.5662H19.4365H8.96182V67.5921H19.4365L20.0014 66.2309H61.4433H61.5596H102.993L103.558 67.5921H114.033V64.8698H103.558Z" fill="black"/>
<path opacity="0.3" d="M33.3834 21.245V18.9708C33.3834 16.431 35.4435 14.3726 37.9853 14.3726H43.4179C45.9597 14.3726 48.0198 16.431 48.0198 18.9708V21.245H33.3834Z" fill="black"/>
<g opacity="0.3">
<path d="M68.1967 8.89453C68.1967 8.89453 67.7315 12.0153 66.5769 12.3639C65.4222 12.7125 52.9207 12.3639 52.9207 12.3639L51.1846 8.89453H68.1967Z" fill="black"/>
<path d="M57.4312 9.46722H62.8721V6.44604H57.4312V9.46722Z" fill="black"/>
</g>
<path opacity="0.3" d="M89.6112 21.245V18.9708C89.6112 16.431 87.5512 14.3726 85.0093 14.3726H79.5768C77.0349 14.3726 74.9749 16.431 74.9749 18.9708V21.245H89.6112Z" fill="black"/>
<path d="M112.064 33.2468C112.064 33.2468 114.938 36.2928 114.548 38.4425C114.149 40.5839 114.049 43.7629 112.563 43.9621C111.076 44.1613 93.7064 43.6633 92.1199 42.9744C90.5333 42.2855 82.1934 37.2225 82.2931 35.6372C82.3928 34.0519 83.9793 33.255 83.9793 33.255H112.064V33.2468Z" fill="white"/>
<path opacity="0.3" d="M61.8338 37.903C63.5908 37.903 65.0152 36.4798 65.0152 34.7241C65.0152 32.9685 63.5908 31.5452 61.8338 31.5452C60.0767 31.5452 58.6523 32.9685 58.6523 34.7241C58.6523 36.4798 60.0767 37.903 61.8338 37.903Z" fill="black"/>
<path d="M3.29667 55.2666C40.5355 55.0093 82.318 55.0093 119.557 55.2666C82.318 55.5239 40.5355 55.5239 3.29667 55.2666Z" fill="#263238"/>
<path opacity="0.4" d="M3.60401 23.0128C3.67046 22.9381 10.3739 28.8644 10.3739 28.8644L12.2596 27.4866L5.17398 21.5272L3.60401 23.0046V23.0128Z" fill="white"/>
<path opacity="0.4" d="M5.79698 21.0623L12.9407 26.8972L13.5803 26.1004L6.5861 20.639L5.79698 21.0623Z" fill="white"/>
<path opacity="0.4" d="M119.249 22.8551C119.183 22.7804 112.48 28.7067 112.48 28.7067L110.594 27.3289L117.671 21.4109C118.111 21.7263 118.668 22.2659 119.249 22.8469V22.8551Z" fill="white"/>
<path opacity="0.4" d="M117.056 20.971L109.913 26.7478L109.273 25.951L116.159 20.5726C116.467 20.6307 116.766 20.7884 117.056 20.9627V20.971Z" fill="white"/>
<path opacity="0.3" d="M55.6204 7.49186C55.6204 7.49186 66.1615 17.2111 69.2931 19.3525C69.6836 19.6181 70.1404 19.751 70.6139 19.751H95.6585C96.6636 19.751 97.3697 18.755 97.0208 17.8088C95.7167 14.2813 93.1416 7.58315 92.2694 7.48355C90.3921 7.28435 55.6204 7.48355 55.6204 7.48355V7.49186Z" fill="white"/>
<path opacity="0.3" d="M33.3834 51.764C33.3834 51.764 49.1412 53.673 62.1992 53.3244C77.6746 52.9094 91.9039 52.0462 90.1263 51.9549C89.5697 51.93 33.3834 51.764 33.3834 51.764Z" fill="black"/>
<path opacity="0.3" d="M30.8748 26.3079C30.8748 26.3079 46.6326 28.2169 59.6906 27.8683C75.166 27.4533 89.3953 26.5901 87.6177 26.4988C87.0611 26.4739 30.8748 26.3079 30.8748 26.3079Z" fill="black"/>
<path d="M74.2938 56.4453H49.3654C48.7736 56.4453 48.2939 56.9246 48.2939 57.516V61.9398C48.2939 62.5312 48.7736 63.0106 49.3654 63.0106H74.2938C74.8856 63.0106 75.3653 62.5312 75.3653 61.9398V57.516C75.3653 56.9246 74.8856 56.4453 74.2938 56.4453Z" fill="#263238"/>
<path opacity="0.4" d="M74.2938 56.4453H49.3654C48.7736 56.4453 48.2939 56.9246 48.2939 57.516V61.9398C48.2939 62.5312 48.7736 63.0106 49.3654 63.0106H74.2938C74.8856 63.0106 75.3653 62.5312 75.3653 61.9398V57.516C75.3653 56.9246 74.8856 56.4453 74.2938 56.4453Z" fill="white"/>
<path d="M45.5361 2.00553H43.9163C43.8581 2.00553 43.8166 1.95573 43.8166 1.90593C43.8166 1.85613 43.8664 1.80634 43.9163 1.80634H45.5361C45.5942 1.80634 45.6358 1.85613 45.6358 1.90593C45.6358 1.95573 45.5859 2.00553 45.5361 2.00553Z" fill="white"/>
<path d="M58.9596 2.00553H46.9814C46.9233 2.00553 46.8817 1.95573 46.8817 1.90593C46.8817 1.85613 46.9316 1.80634 46.9814 1.80634H58.9596C59.0178 1.80634 59.0593 1.85613 59.0593 1.90593C59.0593 1.95573 59.0095 2.00553 58.9596 2.00553Z" fill="white"/>
<path d="M62.6063 25.0878H50.6281C50.5699 25.0878 50.5284 25.038 50.5284 24.9882C50.5284 24.9384 50.5782 24.8886 50.6281 24.8886H62.6063C62.6644 24.8886 62.7059 24.9384 62.7059 24.9882C62.7059 25.038 62.6561 25.0878 62.6063 25.0878Z" fill="white"/>
</svg>
