<svg width="75" height="55" viewBox="0 0 75 55" fill="none" xmlns="http://www.w3.org/2000/svg">
<path opacity="0.3" d="M37.3342 54.6599C55.7857 54.6599 70.7436 52.7795 70.7436 50.4601C70.7436 48.1406 55.7857 46.2603 37.3342 46.2603C18.8827 46.2603 3.92477 48.1406 3.92477 50.4601C3.92477 52.7795 18.8827 54.6599 37.3342 54.6599Z" fill="black"/>
<path d="M66.8312 52.4935H69.3065C71.6371 52.4935 73.5263 50.6058 73.5263 48.2771V34.4576C73.5263 32.129 71.6371 30.2412 69.3065 30.2412H66.8312C64.5006 30.2412 62.6114 32.129 62.6114 34.4576V48.2771C62.6114 50.6058 64.5006 52.4935 66.8312 52.4935Z" fill="#263238"/>
<path d="M7.66278 30.2329H5.18738C2.85686 30.2329 0.967606 32.1207 0.967606 34.4493V48.2688C0.967606 50.5975 2.85686 52.4852 5.18738 52.4852H7.66278C9.9933 52.4852 11.8826 50.5975 11.8826 48.2688V34.4493C11.8826 32.1207 9.9933 30.2329 7.66278 30.2329Z" fill="#263238"/>
<path d="M72.1474 14.77C73.9333 14.8945 74.5646 12.2219 74.3154 10.952C74.0579 9.68211 68.7085 9.68211 67.9442 9.93111C67.18 10.1884 65.7181 12.9606 65.7181 12.9606C65.7181 12.9606 63.143 8.6363 61.1909 4.4531C59.4798 0.784501 55.4178 0.809414 55.4178 0.809414H19.2506C19.2506 0.809414 15.388 0.253301 13.4774 4.4531C11.5669 8.6529 8.87553 13.2843 8.87553 13.2843C8.87553 13.2843 7.48832 10.1801 6.72411 9.93111C5.95989 9.67381 0.610415 9.67381 0.352908 10.952C0.0954012 12.2219 0.735002 14.9028 2.52094 14.77C4.30687 14.6455 7.87043 14.3882 7.87043 14.3882L8.12794 15.4091C8.12794 15.4091 3.92478 20.1235 4.17398 22.2815C4.17398 22.2815 1.88133 23.1696 1.88133 24.4478C1.88133 25.726 1.37463 43.6789 4.17398 46.0942C4.17398 46.0942 5.44489 46.8578 5.827 46.9823C6.17588 47.0985 32.2256 47.0072 37.3342 46.9823C42.4428 46.9989 68.4925 47.0902 68.8414 46.9823C69.2235 46.8578 70.4944 46.0942 70.4944 46.0942C73.3021 43.6706 72.787 25.7177 72.787 24.4478C72.787 23.1779 70.4944 22.2815 70.4944 22.2815C70.7519 20.1152 66.5404 15.4091 66.5404 15.4091L66.7979 14.3882C66.7979 14.3882 70.3698 14.6455 72.1474 14.77Z" fill="#C7A083"/>
<path opacity="0.3" d="M66.8145 27.7097C66.8145 27.7097 65.0618 31.0961 62.2542 31.3949C59.4465 31.6937 56.29 31.4198 56.29 31.4198L56.7635 25.643L66.8229 27.7097" fill="black"/>
<path d="M64.58 21.0531C64.7046 21.1278 65.743 22.5471 66.4989 23.5846C67.0056 24.2818 67.2714 25.1201 67.2714 25.975C67.2714 27.9587 65.8427 29.6602 63.8823 30.0005C62.0797 30.3159 59.6044 30.4072 56.589 29.6934C56.589 29.6934 56.398 25.7011 57.129 25.0454C57.86 24.3897 64.58 21.0531 64.58 21.0531Z" fill="white"/>
<path d="M9.63145 14.8032C9.63145 14.8032 19.7075 17.7995 37.2428 17.2766C54.7782 16.7537 64.5884 14.6455 64.5884 14.6455C64.5884 14.6455 60.7922 4.79343 58.9481 3.39073C57.1041 1.98803 55.4676 1.77222 52.3111 1.85522C49.1546 1.94652 20.0563 1.85523 17.6059 2.12083C15.1554 2.38643 14.0838 5.64004 13.4276 6.82694C12.2148 9.03474 9.63145 14.7949 9.63145 14.7949V14.8032Z" fill="#263238"/>
<path opacity="0.3" d="M7.60462 27.7097C7.60462 27.7097 9.35734 31.0961 12.165 31.3949C14.9726 31.6937 18.1292 31.4198 18.1292 31.4198L17.6557 25.643L7.59633 27.7097" fill="black"/>
<path d="M9.91387 21.0531C9.78927 21.1278 8.75094 22.5471 7.99503 23.5846C7.48833 24.2818 7.22252 25.1201 7.22252 25.975C7.22252 27.9587 8.65128 29.6602 10.6117 30.0005C12.4142 30.3159 14.8896 30.4072 17.9049 29.6934C17.9049 29.6934 18.0959 25.7011 17.365 25.0454C16.634 24.3897 9.91387 21.0531 9.91387 21.0531Z" fill="white"/>
<path d="M34.377 25.7509L19.2423 24.8546C19.2423 24.8546 20.4717 30.1167 24.2014 31.1127C26.9259 31.8431 33.754 31.8763 37.2428 31.8431C40.7316 31.8763 47.568 31.8431 50.2843 31.1127C54.014 30.1167 55.2434 24.8546 55.2434 24.8546L40.1086 25.7509C38.1981 25.8671 36.2792 25.8671 34.3687 25.7509H34.377Z" fill="#263238"/>
<path opacity="0.3" d="M38.4722 38.1761C47.5514 38.1512 62.3123 35.8438 67.0139 35.0719C67.8778 34.9308 68.6835 35.5284 68.7998 36.3916C68.858 36.8066 68.9078 37.3046 68.941 37.8856C69.0739 40.0685 68.1519 41.3135 68.1519 41.3135C62.8855 42.434 44.046 42.7826 38.4722 43.098C37.8077 43.1395 36.9105 43.098 36.9105 43.098C31.3451 42.7826 12.4973 42.434 7.23083 41.3135C7.23083 41.3135 6.30047 40.0768 6.44168 37.8856C6.56628 35.8189 6.89025 34.8146 6.89025 34.8146C6.89025 34.8146 26.0039 38.1346 36.9105 38.1678H38.4722V38.1761Z" fill="black"/>
<path opacity="0.3" d="M38.8045 24.2652C38.8045 24.647 38.0403 24.9542 37.1016 24.9542C36.1629 24.9542 35.3987 24.647 35.3987 24.2652C35.3987 23.8834 36.1629 23.5764 37.1016 23.5764C38.0403 23.5764 38.8045 23.8834 38.8045 24.2652Z" fill="black"/>
<path opacity="0.2" d="M56.5724 3.87217C54.3712 2.91767 23.1547 3.60656 23.1547 3.60656C23.5119 3.84726 31.4863 14.9527 36.4703 15.6914C41.4543 16.4218 62.6197 13.9152 62.5034 13.5583C62.3871 13.2014 58.782 4.83495 56.5724 3.88045V3.87217Z" fill="white"/>
<path opacity="0.3" d="M0.377839 12.4211C0.352919 12.2634 6.40015 12.0808 7.05638 12.4211C7.7043 12.7614 7.87044 14.3799 7.87044 14.3799C7.87044 14.3799 2.44619 14.8447 2.10561 14.7368C1.75673 14.6289 0.735008 14.3799 0.386128 12.4211H0.377839Z" fill="black"/>
<path opacity="0.3" d="M74.2656 12.4211C74.2905 12.2634 68.2433 12.0808 67.5871 12.4211C66.9392 12.7614 66.773 14.3799 66.773 14.3799C66.773 14.3799 72.1973 14.8447 72.5378 14.7368C72.8867 14.6289 73.9084 14.3799 74.2573 12.4211H74.2656Z" fill="black"/>
<path d="M44.1124 33.2043H32.2173C31.8181 33.2043 31.4946 33.5276 31.4946 33.9264V35.7192C31.4946 36.118 31.8181 36.4413 32.2173 36.4413H44.1124C44.5116 36.4413 44.8351 36.118 44.8351 35.7192V33.9264C44.8351 33.5276 44.5116 33.2043 44.1124 33.2043Z" fill="#263238"/>
<path opacity="0.4" d="M44.1124 33.2043H32.2173C31.8181 33.2043 31.4946 33.5276 31.4946 33.9264V35.7192C31.4946 36.118 31.8181 36.4413 32.2173 36.4413H44.1124C44.5116 36.4413 44.8351 36.118 44.8351 35.7192V33.9264C44.8351 33.5276 44.5116 33.2043 44.1124 33.2043Z" fill="white"/>
</svg>
