<svg width="375" height="113" viewBox="0 0 375 113" fill="none" xmlns="http://www.w3.org/2000/svg">
<path d="M172.731 0C172.731 0 -110.169 11.0971 -111 11.0722V16.0107L172.731 1.07902V0Z" fill="#263238"/>
<path d="M-110.443 34.7687L172.731 2.32404V8.00123L-110.443 80.2527V34.7687Z" fill="#263238"/>
<path d="M15.7182 8.66522H8.38342V35.2418H15.7182V8.66522Z" fill="#263238"/>
<path d="M37.0996 7.88501H29.3162V34.4616H37.0996V7.88501Z" fill="#263238"/>
<path d="M57.0688 5.99261H49.2854V32.5692H57.0688V5.99261Z" fill="#263238"/>
<path d="M77.038 4.10852H69.2547V30.6851H77.038V4.10852Z" fill="#263238"/>
<path d="M94.5568 4.10852H89.2156V25.1075H94.5568V4.10852Z" fill="#263238"/>
<path d="M110.929 2.80542H105.588V21.165H110.929V2.80542Z" fill="#263238"/>
<path d="M125.532 2.45685H120.191V16.9735H125.532V2.45685Z" fill="#263238"/>
<path d="M140.119 1.9173H134.778V16.434H140.119V1.9173Z" fill="#263238"/>
<path d="M154.705 1.61853H149.364V11.5536H154.705V1.61853Z" fill="#263238"/>
<path d="M169.292 0.854919H163.951V7.05502H169.292V0.854919Z" fill="#263238"/>
<path d="M210.136 0C210.136 0 486.499 11.0971 487.304 11.0722V16.0107L210.127 1.07902V0H210.136Z" fill="#263238"/>
<path d="M486.764 34.7687L210.136 2.32404V8.00123L486.764 80.2527V34.7687Z" fill="#263238"/>
<path d="M363.527 35.2418H370.687V8.6652H363.527V35.2418Z" fill="#263238"/>
<path d="M342.627 34.4533H350.228V7.87669H342.627V34.4533Z" fill="#263238"/>
<path d="M323.123 32.5775H330.724V6.0009H323.123V32.5775Z" fill="#263238"/>
<path d="M303.619 30.6851H311.22V4.10853H303.619V30.6851Z" fill="#263238"/>
<path d="M286.491 25.1158H291.715V4.11679H286.491V25.1158Z" fill="#263238"/>
<path d="M268.93 21.1733H274.155V2.81374H268.93V21.1733Z" fill="#263238"/>
<path d="M256.229 16.9652H261.454V2.44852H256.229V16.9652Z" fill="#263238"/>
<path d="M243.022 13.7365H248.247V2.03351H243.022V13.7365Z" fill="#263238"/>
<path d="M228.095 10.5825H233.32V1.06242H228.095V10.5825Z" fill="#263238"/>
<path d="M215.626 8.36639H220.851V0.66397L215.626 0.66397V8.36639Z" fill="#263238"/>
<path d="M-110.485 80.2527C-108.923 80.2527 173.013 7.44513 173.013 7.44513H214.621L486.764 80.2527L487.304 113.22H-110.443L-110.477 80.2527H-110.485Z" fill="#263238"/>
<path opacity="0.5" d="M-110.485 80.2527C-108.923 80.2527 173.013 7.44513 173.013 7.44513H214.621L486.764 80.2527L487.304 113.22H-110.443L-110.477 80.2527H-110.485Z" fill="white"/>
<path d="M187.052 27.9046H191.221L190.748 19.0983H187.816L187.052 27.9046Z" fill="white"/>
<path d="M192.584 53.369L191.736 37.6405H186.213L184.85 53.369H192.584Z" fill="white"/>
<path d="M183.696 66.7238L179.426 94.9687H196.455L193.298 66.7238H183.696Z" fill="white"/>
<path d="M190.582 16.0107L190.125 7.44513H188.829L188.082 16.0107H190.582Z" fill="white"/>
<path d="M172.731 8.00122L-110.485 90.3704V93.5742L174.093 8.00122" fill="white"/>
<path d="M213.143 8.00122L486.615 87.1002L486.764 92.0719L211.78 8.00122" fill="white"/>
</svg>
